<svg width="390" height="360" viewBox="0 0 390 360" xmlns="http://www.w3.org/2000/svg">
  <defs>
    <linearGradient id="bg" x1="0" y1="0" x2="0" y2="1">
      <stop offset="0%" stop-color="#020010"/>
      <stop offset="30%" stop-color="#0a0828"/>
      <stop offset="60%" stop-color="#151040"/>
      <stop offset="100%" stop-color="#1a1545"/>
    </linearGradient>
  </defs>
  <rect width="390" height="360" fill="url(#bg)"/>
  <path d="M50 0 Q120 80 160 150 Q200 220 280 300 Q320 340 370 360" fill="none" stroke="rgba(180,180,255,0.06)" stroke-width="60"/>
  <path d="M70 0 Q130 70 170 140 Q210 210 290 290 Q330 330 380 360" fill="none" stroke="rgba(200,200,255,0.04)" stroke-width="30"/>
  <circle cx="40" cy="30" r="1.2" fill="rgba(255,255,255,0.6)"/>
  <circle cx="95" cy="55" r="0.8" fill="rgba(255,255,255,0.4)"/>
  <circle cx="150" cy="20" r="1" fill="rgba(255,255,255,0.5)"/>
  <circle cx="210" cy="80" r="1.4" fill="rgba(255,255,255,0.55)"/>
  <circle cx="270" cy="40" r="0.9" fill="rgba(255,255,255,0.35)"/>
  <circle cx="330" cy="65" r="1.1" fill="rgba(255,255,255,0.45)"/>
  <circle cx="60" cy="120" r="0.7" fill="rgba(255,255,255,0.3)"/>
  <circle cx="130" cy="140" r="1" fill="rgba(255,255,255,0.4)"/>
  <circle cx="300" cy="130" r="1.3" fill="rgba(255,255,255,0.5)"/>
  <circle cx="350" cy="160" r="0.6" fill="rgba(255,255,255,0.25)"/>
  <circle cx="80" cy="200" r="0.9" fill="rgba(255,255,255,0.35)"/>
  <circle cx="240" cy="190" r="1.1" fill="rgba(255,255,255,0.4)"/>
  <circle cx="180" cy="250" r="0.8" fill="rgba(255,255,255,0.3)"/>
  <circle cx="320" cy="240" r="1.2" fill="rgba(255,255,255,0.45)"/>
  <path d="M0 310 Q60 290 120 300 Q200 315 280 295 Q340 280 390 290 L390 360 L0 360Z" fill="rgba(0,0,0,0.2)"/>
</svg>