<svg width="390" height="360" viewBox="0 0 390 360" xmlns="http://www.w3.org/2000/svg">
  <defs>
    <linearGradient id="bg" x1="0" y1="0" x2="0" y2="1">
      <stop offset="0%" stop-color="#0a1a0f"/>
      <stop offset="30%" stop-color="#1a3a25"/>
      <stop offset="60%" stop-color="#2d5a3a"/>
      <stop offset="100%" stop-color="#4a8060"/>
    </linearGradient>
  </defs>
  <rect width="390" height="360" fill="url(#bg)"/>
  <path d="M0 320 L20 220 L40 320 Z" fill="rgba(0,0,0,0.15)"/>
  <path d="M30 320 L55 200 L80 320 Z" fill="rgba(0,0,0,0.12)"/>
  <path d="M70 320 L100 180 L130 320 Z" fill="rgba(0,0,0,0.18)"/>
  <path d="M120 320 L145 210 L170 320 Z" fill="rgba(0,0,0,0.13)"/>
  <path d="M160 320 L195 170 L230 320 Z" fill="rgba(0,0,0,0.16)"/>
  <path d="M220 320 L250 195 L280 320 Z" fill="rgba(0,0,0,0.14)"/>
  <path d="M270 320 L300 185 L330 320 Z" fill="rgba(0,0,0,0.17)"/>
  <path d="M320 320 L350 210 L380 320 Z" fill="rgba(0,0,0,0.12)"/>
  <path d="M360 320 L385 230 L400 320 Z" fill="rgba(0,0,0,0.1)"/>
  <rect x="0" y="310" width="390" height="50" fill="rgba(0,0,0,0.08)"/>
  <line x1="280" y1="40" x2="220" y2="200" stroke="rgba(255,255,255,0.04)" stroke-width="20"/>
  <line x1="310" y1="30" x2="260" y2="180" stroke="rgba(255,255,255,0.03)" stroke-width="15"/>
</svg>