<svg width="390" height="360" viewBox="0 0 390 360" xmlns="http://www.w3.org/2000/svg">
  <defs>
    <linearGradient id="bg" x1="0" y1="0" x2="0" y2="1">
      <stop offset="0%" stop-color="#10080a"/>
      <stop offset="30%" stop-color="#2a1020"/>
      <stop offset="60%" stop-color="#4a1830"/>
      <stop offset="100%" stop-color="#6a2840"/>
    </linearGradient>
  </defs>
  <rect width="390" height="360" fill="url(#bg)"/>
  <circle cx="60" cy="80" r="8" fill="rgba(255,180,80,0.12)"/>
  <circle cx="60" cy="80" r="4" fill="rgba(255,200,100,0.2)"/>
  <circle cx="140" cy="60" r="8" fill="rgba(255,100,100,0.1)"/>
  <circle cx="140" cy="60" r="4" fill="rgba(255,120,120,0.18)"/>
  <circle cx="220" cy="75" r="8" fill="rgba(255,200,80,0.11)"/>
  <circle cx="220" cy="75" r="4" fill="rgba(255,220,100,0.2)"/>
  <circle cx="300" cy="55" r="8" fill="rgba(255,150,100,0.1)"/>
  <circle cx="300" cy="55" r="4" fill="rgba(255,170,120,0.18)"/>
  <path d="M60 78 Q100 95 140 58" fill="none" stroke="rgba(255,255,255,0.04)" stroke-width="0.5"/>
  <path d="M140 58 Q180 75 220 73" fill="none" stroke="rgba(255,255,255,0.04)" stroke-width="0.5"/>
  <path d="M220 73 Q260 85 300 53" fill="none" stroke="rgba(255,255,255,0.04)" stroke-width="0.5"/>
  <path d="M0 300 Q20 285 40 290 Q60 280 80 288 Q100 275 120 282 Q140 272 160 280 Q180 270 200 278 Q220 268 240 276 Q260 265 280 274 Q300 264 320 272 Q340 262 360 270 Q380 260 390 268 L390 360 L0 360Z" fill="rgba(0,0,0,0.18)"/>
  <rect width="390" height="360" fill="rgba(255,150,50,0.03)"/>
</svg>