<svg width="390" height="360" viewBox="0 0 390 360" xmlns="http://www.w3.org/2000/svg">
  <defs>
    <linearGradient id="bg" x1="0" y1="0" x2="0" y2="1">
      <stop offset="0%" stop-color="#0a0a1a"/>
      <stop offset="30%" stop-color="#0d1b2a"/>
      <stop offset="60%" stop-color="#1b2838"/>
      <stop offset="100%" stop-color="#2a3040"/>
    </linearGradient>
  </defs>
  <rect width="390" height="360" fill="url(#bg)"/>
  <rect x="20" y="210" width="28" height="150" rx="2" fill="rgba(255,255,255,0.04)"/>
  <rect x="55" y="240" width="22" height="120" rx="2" fill="rgba(255,255,255,0.03)"/>
  <rect x="82" y="190" width="35" height="170" rx="2" fill="rgba(255,255,255,0.05)"/>
  <rect x="125" y="230" width="20" height="130" rx="2" fill="rgba(255,255,255,0.03)"/>
  <rect x="150" y="200" width="40" height="160" rx="2" fill="rgba(255,255,255,0.04)"/>
  <rect x="198" y="220" width="25" height="140" rx="2" fill="rgba(255,255,255,0.035)"/>
  <rect x="230" y="180" width="32" height="180" rx="2" fill="rgba(255,255,255,0.05)"/>
  <rect x="270" y="240" width="24" height="120" rx="2" fill="rgba(255,255,255,0.03)"/>
  <rect x="300" y="210" width="38" height="150" rx="2" fill="rgba(255,255,255,0.045)"/>
  <rect x="345" y="250" width="30" height="110" rx="2" fill="rgba(255,255,255,0.035)"/>
  <rect x="88" y="210" width="3" height="3" rx="0.5" fill="rgba(255,200,100,0.3)"/>
  <rect x="95" y="220" width="3" height="3" rx="0.5" fill="rgba(255,200,100,0.25)"/>
  <rect x="155" y="225" width="3" height="3" rx="0.5" fill="rgba(255,200,100,0.35)"/>
  <rect x="165" y="240" width="3" height="3" rx="0.5" fill="rgba(255,200,100,0.2)"/>
  <rect x="235" y="200" width="3" height="3" rx="0.5" fill="rgba(255,200,100,0.3)"/>
  <rect x="242" y="215" width="3" height="3" rx="0.5" fill="rgba(255,200,100,0.25)"/>
  <rect x="308" y="230" width="3" height="3" rx="0.5" fill="rgba(255,200,100,0.2)"/>
  <rect x="315" y="245" width="3" height="3" rx="0.5" fill="rgba(255,200,100,0.3)"/>
  <circle cx="60" cy="60" r="1" fill="rgba(255,255,255,0.35)"/>
  <circle cx="180" cy="40" r="0.8" fill="rgba(255,255,255,0.25)"/>
  <circle cx="320" cy="70" r="1.1" fill="rgba(255,255,255,0.3)"/>
</svg>